<?xml version="1.0" encoding="UTF-8" standalone="no"?>
<!-- Created with Inkscape (http://www.inkscape.org/) -->

<svg
   xmlns:dc="http://purl.org/dc/elements/1.1/"
   xmlns:cc="http://creativecommons.org/ns#"
   xmlns:rdf="http://www.w3.org/1999/02/22-rdf-syntax-ns#"
   xmlns:svg="http://www.w3.org/2000/svg"
   xmlns="http://www.w3.org/2000/svg"
   xmlns:xlink="http://www.w3.org/1999/xlink"
   xmlns:sodipodi="http://sodipodi.sourceforge.net/DTD/sodipodi-0.dtd"
   xmlns:inkscape="http://www.inkscape.org/namespaces/inkscape"
   width="444.36301"
   height="583.56018"
   id="svg2"
   version="1.1"
   inkscape:version="0.91 r13725"
   sodipodi:docname="Coruja-2.svg">
  <defs
     id="defs4">
    <inkscape:path-effect
       fuse_tolerance="0"
       vertical_pattern="false"
       prop_units="false"
       tang_offset="0"
       normal_offset="0"
       spacing="0"
       scale_y_rel="false"
       prop_scale="1"
       copytype="single_stretched"
       pattern="m 1480.7143,207.85714 c 0,-2.76 2.24,-5 5,-5 2.76,0 5,2.24 5,5 0,2.76 -2.24,5 -5,5 -2.76,0 -5,-2.24 -5,-5 z"
       is_visible="true"
       id="path-effect4128"
       effect="skeletal" />
    <inkscape:path-effect
       is_visible="true"
       id="path-effect4126"
       effect="spiro" />
    <inkscape:path-effect
       fuse_tolerance="0"
       vertical_pattern="false"
       prop_units="false"
       tang_offset="0"
       normal_offset="0"
       spacing="0"
       scale_y_rel="false"
       prop_scale="1"
       copytype="single_stretched"
       pattern="m 1445.7143,233.57143 c 0,-2.76 2.24,-5 5,-5 2.76,0 5,2.24 5,5 0,2.76 -2.24,5 -5,5 -2.76,0 -5,-2.24 -5,-5 z"
       is_visible="true"
       id="path-effect4124"
       effect="skeletal" />
    <inkscape:path-effect
       is_visible="true"
       id="path-effect4122"
       effect="spiro" />
    <inkscape:path-effect
       fuse_tolerance="0"
       vertical_pattern="false"
       prop_units="false"
       tang_offset="0"
       normal_offset="0"
       spacing="0"
       scale_y_rel="false"
       prop_scale="1"
       copytype="single_stretched"
       pattern="m 1445.7143,233.57143 c 0,-2.76 2.24,-5 5,-5 2.76,0 5,2.24 5,5 0,2.76 -2.24,5 -5,5 -2.76,0 -5,-2.24 -5,-5 z"
       is_visible="true"
       id="path-effect4120"
       effect="skeletal" />
    <inkscape:path-effect
       is_visible="true"
       id="path-effect4118"
       effect="spiro" />
    <inkscape:path-effect
       fuse_tolerance="0"
       vertical_pattern="false"
       prop_units="false"
       tang_offset="0"
       normal_offset="0"
       spacing="0"
       scale_y_rel="false"
       prop_scale="1"
       copytype="single_stretched"
       pattern="m 1480.7143,207.85714 c 0,-2.76 2.24,-5 5,-5 2.76,0 5,2.24 5,5 0,2.76 -2.24,5 -5,5 -2.76,0 -5,-2.24 -5,-5 z"
       is_visible="true"
       id="path-effect4116"
       effect="skeletal" />
    <inkscape:path-effect
       is_visible="true"
       id="path-effect4114"
       effect="spiro" />
    <inkscape:path-effect
       fuse_tolerance="0"
       vertical_pattern="false"
       prop_units="false"
       tang_offset="0"
       normal_offset="0"
       spacing="0"
       scale_y_rel="false"
       prop_scale="1"
       copytype="single_stretched"
       pattern="m 1445.7143,233.57143 c 0,-2.76 2.24,-5 5,-5 2.76,0 5,2.24 5,5 0,2.76 -2.24,5 -5,5 -2.76,0 -5,-2.24 -5,-5 z"
       is_visible="true"
       id="path-effect4112"
       effect="skeletal" />
    <inkscape:path-effect
       is_visible="true"
       id="path-effect4110"
       effect="spiro" />
    <inkscape:path-effect
       fuse_tolerance="0"
       vertical_pattern="false"
       prop_units="false"
       tang_offset="0"
       normal_offset="0"
       spacing="0"
       scale_y_rel="false"
       prop_scale="1"
       copytype="single_stretched"
       pattern="m 1445.7143,233.57143 c 0,-2.76 2.24,-5 5,-5 2.76,0 5,2.24 5,5 0,2.76 -2.24,5 -5,5 -2.76,0 -5,-2.24 -5,-5 z"
       is_visible="true"
       id="path-effect4108"
       effect="skeletal" />
    <inkscape:path-effect
       is_visible="true"
       id="path-effect4106"
       effect="spiro" />
    <inkscape:path-effect
       effect="skeletal"
       id="path-effect3992"
       is_visible="true"
       pattern="m -2.1428571,207.85714 c 0,-2.76 2.23999996,-5 5,-5 2.76,0 5,2.24 5,5 0,2.76 -2.24,5 -5,5 -2.76000004,0 -5,-2.24 -5,-5 z"
       copytype="single_stretched"
       prop_scale="1"
       scale_y_rel="false"
       spacing="0"
       normal_offset="0"
       tang_offset="0"
       prop_units="false"
       vertical_pattern="false"
       fuse_tolerance="0" />
    <inkscape:path-effect
       effect="spiro"
       id="path-effect3990"
       is_visible="true" />
    <inkscape:path-effect
       effect="skeletal"
       id="path-effect3986"
       is_visible="true"
       pattern="m -37.142857,233.57143 c 0,-2.76 2.24,-5 5,-5 2.76,0 5,2.24 5,5 0,2.76 -2.24,5 -5,5 -2.76,0 -5,-2.24 -5,-5 z"
       copytype="single_stretched"
       prop_scale="1"
       scale_y_rel="false"
       spacing="0"
       normal_offset="0"
       tang_offset="0"
       prop_units="false"
       vertical_pattern="false"
       fuse_tolerance="0" />
    <inkscape:path-effect
       effect="spiro"
       id="path-effect3984"
       is_visible="true" />
    <inkscape:path-effect
       effect="skeletal"
       id="path-effect3980"
       is_visible="true"
       pattern="m -37.142857,233.57143 c 0,-2.76 2.24,-5 5,-5 2.76,0 5,2.24 5,5 0,2.76 -2.24,5 -5,5 -2.76,0 -5,-2.24 -5,-5 z"
       copytype="single_stretched"
       prop_scale="1"
       scale_y_rel="false"
       spacing="0"
       normal_offset="0"
       tang_offset="0"
       prop_units="false"
       vertical_pattern="false"
       fuse_tolerance="0" />
    <inkscape:path-effect
       effect="spiro"
       id="path-effect3978"
       is_visible="true" />
    <inkscape:path-effect
       effect="skeletal"
       id="path-effect3194"
       is_visible="true"
       pattern="m 4.0406102,5 c 0,-2.76 2.24,-5 5,-5 2.7599998,0 4.9999998,2.24 4.9999998,5 0,2.76 -2.24,5 -4.9999998,5 -2.76,0 -5,-2.24 -5,-5 z"
       copytype="single_stretched"
       prop_scale="0.79"
       scale_y_rel="false"
       spacing="0"
       normal_offset="0"
       tang_offset="0"
       prop_units="false"
       vertical_pattern="false"
       fuse_tolerance="0" />
    <inkscape:path-effect
       effect="spiro"
       id="path-effect3192"
       is_visible="true" />
    <inkscape:path-effect
       fuse_tolerance="0"
       vertical_pattern="false"
       prop_units="false"
       tang_offset="0"
       normal_offset="0"
       spacing="0"
       scale_y_rel="false"
       prop_scale="1"
       copytype="single_stretched"
       pattern="m 721.24892,5 c 0,-2.76 2.24,-5 5,-5 2.76,0 5,2.24 5,5 0,2.76 -2.24,5 -5,5 -2.76,0 -5,-2.24 -5,-5 z"
       is_visible="true"
       id="path-effect3185"
       effect="skeletal" />
    <inkscape:path-effect
       is_visible="true"
       id="path-effect3183"
       effect="spiro" />
    <inkscape:path-effect
       effect="skeletal"
       id="path-effect3173"
       is_visible="true"
       pattern="M 0,5 C 0,2.24 2.24,0 5,0 7.76,0 10,2.24 10,5 10,7.76 7.76,10 5,10 2.24,10 0,7.76 0,5 Z"
       copytype="single_stretched"
       prop_scale="1"
       scale_y_rel="false"
       spacing="0"
       normal_offset="0"
       tang_offset="0"
       prop_units="false"
       vertical_pattern="false"
       fuse_tolerance="0" />
    <inkscape:path-effect
       effect="spiro"
       id="path-effect3171"
       is_visible="true" />
    <inkscape:path-effect
       effect="skeletal"
       id="path-effect3167"
       is_visible="true"
       pattern="M 0,5 C 0,2.24 2.24,0 5,0 7.76,0 10,2.24 10,5 10,7.76 7.76,10 5,10 2.24,10 0,7.76 0,5 Z"
       copytype="single_stretched"
       prop_scale="1"
       scale_y_rel="false"
       spacing="0"
       normal_offset="0"
       tang_offset="0"
       prop_units="false"
       vertical_pattern="false"
       fuse_tolerance="0" />
    <inkscape:path-effect
       effect="spiro"
       id="path-effect3165"
       is_visible="true" />
    <radialGradient
       inkscape:collect="always"
       xlink:href="#linearGradient4147"
       id="radialGradient4153"
       cx="400"
       cy="400"
       fx="400"
       fy="400"
       r="400"
       gradientUnits="userSpaceOnUse"
       gradientTransform="matrix(1.3899298,0,0,1.3899298,-155.97192,-155.97192)" />
    <linearGradient
       inkscape:collect="always"
       id="linearGradient4147">
      <stop
         style="stop-color:#ffffff;stop-opacity:1"
         offset="0"
         id="stop4149" />
      <stop
         id="stop4155"
         offset="0.80000001"
         style="stop-color:#ffffff;stop-opacity:1" />
      <stop
         style="stop-color:#e6e6e6;stop-opacity:1"
         offset="1"
         id="stop4151" />
    </linearGradient>
    <filter
       id="filter4246"
       style="color-interpolation-filters:sRGB"
       inkscape:label="Drop Shadow">
      <feFlood
         id="feFlood4248"
         flood-opacity="0.694"
         flood-color="rgb(0,0,0)"
         result="flood" />
      <feComposite
         id="feComposite4250"
         in2="SourceGraphic"
         in="flood"
         operator="in"
         result="composite1" />
      <feGaussianBlur
         id="feGaussianBlur4252"
         stdDeviation="1.3"
         result="blur" />
      <feOffset
         id="feOffset4254"
         dx="1.38778e-16"
         dy="0.1"
         result="offset" />
      <feComposite
         id="feComposite4256"
         in2="offset"
         in="SourceGraphic"
         operator="over"
         result="composite2" />
    </filter>
  </defs>
  <sodipodi:namedview
     id="base"
     pagecolor="#ffffff"
     bordercolor="#666666"
     borderopacity="1.0"
     inkscape:pageopacity="0.0"
     inkscape:pageshadow="2"
     inkscape:zoom="0.73793251"
     inkscape:cx="266.9395"
     inkscape:cy="372.29034"
     inkscape:document-units="px"
     inkscape:current-layer="layer1"
     showgrid="false"
     inkscape:window-width="1301"
     inkscape:window-height="744"
     inkscape:window-x="65"
     inkscape:window-y="24"
     inkscape:window-maximized="1"
     fit-margin-top="0"
     fit-margin-left="0"
     fit-margin-right="0"
     fit-margin-bottom="0" />
  <metadata
     id="metadata7">
    <rdf:RDF>
      <cc:Work
         rdf:about="">
        <dc:format>image/svg+xml</dc:format>
        <dc:type
           rdf:resource="http://purl.org/dc/dcmitype/StillImage" />
        <dc:title></dc:title>
      </cc:Work>
    </rdf:RDF>
  </metadata>
  <g
     inkscape:label="Camada 1"
     inkscape:groupmode="layer"
     id="layer1"
     transform="translate(-0.67997366,-468.12201)">
    <path
       style="color:#000000;display:inline;overflow:visible;visibility:visible;fill:#000000;fill-opacity:1;fill-rule:evenodd;stroke:none;stroke-width:0.2;marker:none;enable-background:accumulate"
       d="m 224.10547,215.76953 c -17.22947,-0.14174 -34.14919,1.27462 -50.375,3.90625 -23.35062,3.75932 -45.56602,10.23162 -65.5625,19.5625 -10.801416,5.03561 -20.956471,10.97032 -30.187501,17.65625 -9.231031,6.68594 -17.547461,14.14157 -24.78125,22.21875 -7.875919,8.82822 -14.350731,18.24063 -19.78125,27.8125 -5.430519,9.57187 -9.79344,19.29779 -13.34375,28.8125 -4.307251,11.53167 -7.518793,22.77228 -10.03125,33.5 -2.512457,10.72771 -4.3409269,20.94511 -5.7812502,30.5 -0.2578511,1.70733 -0.4926712,3.37078 -0.7265626,5.0332 l 0,38.7461 c 0.1654307,-1.60164 0.3216063,-3.16719 0.5078126,-4.8418 1.2405721,-11.15685 2.9422787,-23.93493 5.46875,-38.09375 1.6821302,-9.41111 3.7435852,-19.43084 6.4375002,-29.90625 2.693914,-10.47542 6.038529,-21.40834 10.4375,-32.53125 3.627352,-9.16239 7.9955,-18.45457 13.34375,-27.5625 5.348251,-9.10793 11.667182,-18.01446 19.25,-26.25 6.930976,-7.55827 14.915018,-14.52925 23.78125,-20.78125 8.866232,-6.25201 18.617461,-11.79814 29.000001,-16.53125 19.26207,-8.77269 40.742,-14.81426 63.40625,-18.3125 14.189,-2.1727 28.89257,-3.3813 43.84375,-3.4375 11.6287,-0.0437 23.40518,0.60673 35.21875,2.0625 27.00246,3.32747 54.16428,10.82654 79.59375,23.6875 20.71901,10.45582 40.13031,24.5547 56.46875,42 0.26178,0.27952 0.52129,0.56277 0.78125,0.84375 16.36705,17.7042 29.04916,38.37921 36.28125,60.40625 7.21575,21.85368 9.13066,44.9486 7.21875,67.125 -2.02789,23.4325 -8.26713,45.92245 -17.21875,66.4375 -9.89523,22.73601 -22.9283,43.02537 -37.21875,61.28125 -14.29046,18.25588 -29.83447,34.45449 -45.3125,48.96875 -26.22137,24.54764 -52.48393,44.41807 -76.6875,60.34375 -24.20356,15.92569 -46.34428,27.95045 -64.90625,37.0625 -18.56197,9.11206 -33.54552,15.34612 -43.75,19.53125 -5.10223,2.09256 -9.00304,3.6671 -11.625,4.78125 -2.62196,1.11416 -3.97155,1.7434 -3.90625,1.9375 0.0163,0.0485 0.12392,0.0725 0.3125,0.0625 0.18858,-0.01 0.48559,-0.0258 0.84375,-0.0937 0.71631,-0.13596 1.74644,-0.41068 3.125,-0.78125 2.75714,-0.74115 6.83723,-1.94411 12.09375,-3.6875 9.5582,-3.17011 23.12007,-8.10409 39.78125,-15.40625 -1.66809,1.90311 -3.31269,3.79652 -5.40625,6.21875 -2.87556,3.32699 -6.13599,7.10285 -9.78125,11.25 -7.29052,8.29431 -16.08524,18.04814 -26.21875,28.5 -10.1335,10.4519 -21.61559,21.60015 -34.125,32.78125 -2.13017,1.9039 -4.25688,3.7814 -6.375,5.625 -4.65709,4.05345 -9.257297,7.91142 -13.804689,11.64453 l 15.449219,0 c 1.62702,-1.35498 3.25482,-2.70901 4.88672,-4.11328 2.16855,-1.866 4.32969,-3.77895 6.5,-5.71875 12.74514,-11.3919 24.25184,-22.9563 34.1875,-33.9375 9.93565,-10.98114 18.32133,-21.36678 25,-30.34375 6.67867,-8.97697 11.64757,-16.55009 14.84375,-21.9375 0.67577,-1.13906 1.23499,-2.12446 1.75,-3.0625 18.62655,-8.4795 40.61402,-19.7839 64.625,-34.90625 24.79534,-15.61634 51.71148,-35.2787 78.625,-59.84375 15.91591,-14.50323 31.94347,-30.8451 46.75,-49.4375 14.80654,-18.59241 28.38647,-39.44573 38.875,-62.96875 9.46961,-21.29019 16.09593,-44.71849 18.34375,-69.3125 0.53436,-5.82684 0.8155,-11.72421 0.8125,-17.65625 -8e-4,-1.48301 -0.0262,-2.98183 -0.0625,-4.46875 -0.39916,-16.35616 -2.9519,-32.91134 -8.1875,-48.96875 -7.71129,-23.52652 -21.09274,-45.47613 -38.375,-64.125 -0.27388,-0.29574 -0.56799,-0.58082 -0.84375,-0.875 -17.21047,-18.36005 -37.55468,-33.13416 -59.28125,-44.03125 -26.63444,-13.33061 -54.91717,-21.0326 -82.90625,-24.375 -10.49591,-1.2534 -20.94357,-1.915 -31.28125,-2 z m -70.28125,52.90625 c -5.56553,0.0497 -11.30391,0.58379 -17.09375,1.65625 -6.61697,1.22567 -13.2981,3.15855 -19.875,5.9375 -9.14484,3.88776 -17.971591,9.31968 -26.062501,16.09375 -8.09091,6.77408 -15.45643,14.91101 -21.6875,24.09375 -5.675037,8.36157 -10.430934,17.51925 -14.25,27.25 -3.819067,9.73076 -6.710281,20.027 -8.625,30.59375 -0.793058,4.35434 -1.407048,8.77187 -1.875,13.21875 -2.217163,21.06943 -0.63052,41.92016 3.875,61.25 3.008172,12.92485 7.336657,25.19864 12.625,36.53125 0.661043,1.41658 1.308939,2.80034 2,4.1875 4.837428,9.71013 10.413409,18.692 16.46875,26.84375 8.39659,11.29261 17.708506,20.95284 27.187501,29.0625 9.47899,8.10965 19.12232,14.67443 28.375,19.9375 10.03247,5.70963 19.6124,9.90844 28.1875,12.96875 8.57509,3.06031 16.13868,4.99318 22.375,6.25 6.23631,1.25682 11.14286,1.83321 14.46875,2.0625 0.19011,0.0131 0.32015,0.0204 0.5,0.0312 0.80945,0.27834 1.9455,0.61376 3.46875,0.96875 3.24679,0.75667 8.1069,1.6217 14.4375,2.25 6.3306,0.62835 14.15439,1.00334 23.25,0.59375 9.09561,-0.40958 19.45257,-1.61031 30.71875,-4.125 10.38968,-2.31658 21.55875,-5.74727 33,-10.71875 11.44125,-4.97148 23.1596,-11.48058 34.5,-19.8125 9.3493,-6.87572 18.40055,-14.96784 26.78125,-24.25 8.3807,-9.28216 16.08193,-19.7454 22.75,-31.21875 9.97881,-17.15709 17.65632,-36.64488 21.71875,-57.4375 0.85741,-4.38846 1.54304,-8.76087 2.0625,-13.15625 1.26996,-10.66347 1.54586,-21.35822 0.75,-31.78125 -0.79586,-10.42303 -2.68437,-20.59134 -5.65625,-30.25 -3.2625,-10.60685 -7.90905,-20.55636 -13.65625,-29.40625 -5.74721,-8.84988 -12.58588,-16.60015 -20.1875,-23 -5.47205,-4.58637 -11.31515,-8.41803 -17.28125,-11.53125 -5.9661,-3.11322 -12.0384,-5.49106 -18.09375,-7.25 -6.05536,-1.75895 -12.08077,-2.87543 -17.90625,-3.4375 -5.82548,-0.56206 -11.4526,-0.56983 -16.8125,-0.125 -5.81552,0.48729 -11.3031,1.49496 -16.34375,2.84375 -3.78048,1.0116 -7.32329,2.21391 -10.625,3.53125 -1.10057,0.43911 -2.1727,0.8811 -3.21875,1.34375 -8.3684,3.70115 -14.95053,8.04146 -19.9375,12 -4.98696,3.95853 -8.39696,7.54921 -10.53125,10.09375 -1.30037,1.55032 -2.09884,2.64963 -2.5,3.375 -0.0253,-0.21867 -0.0587,-0.45482 -0.15625,-0.8125 -0.22557,-0.82664 -0.63436,-2.03311 -1.28125,-3.5625 -1.29375,-3.05877 -3.51901,-7.47122 -7.125,-12.71875 -3.60599,-5.24755 -8.61713,-11.35012 -15.53125,-17.34375 -3.45707,-2.99683 -7.38947,-5.95033 -11.8125,-8.71875 -4.42304,-2.76841 -9.33342,-5.32782 -14.75,-7.5 -4.99348,-1.99792 -10.39101,-3.67181 -16.125,-4.84375 -5.73401,-1.17193 -11.82005,-1.8423 -18.125,-1.9375 -0.78812,-0.0119 -1.57992,-0.0382 -2.375,-0.0312 z m 4.54492,7.8711 c 10.79951,0.10705 20.86001,2.086 29.67383,5.22265 5.1022,1.81084 9.79649,4.00802 14.0625,6.40625 4.26601,2.39822 8.10196,4.9806 11.53125,7.625 6.85857,5.28884 12.0859,10.7565 16,15.46875 3.9141,4.71226 6.54293,8.6966 8.34375,11.40625 1.53921,2.31601 2.48404,3.66884 2.90625,3.9375 -0.0926,0.22821 -0.125,0.34975 -0.0625,0.40625 0.23976,0.21672 1.60841,-0.84424 4.125,-2.90625 2.5166,-2.062 6.2193,-5.11233 11.34375,-8.46875 5.12446,-3.35641 11.67274,-7.01883 19.78125,-10.0625 4.05425,-1.52183 8.49933,-2.89653 13.28125,-3.9375 4.78191,-1.04097 9.90355,-1.7659 15.3125,-2 9.9693,-0.44002 20.93501,0.81637 32,4.375 5.53249,1.77932 11.07365,4.11589 16.46875,7.09375 5.39511,2.97786 10.65768,6.58303 15.53125,10.84375 6.81713,5.9304 12.922,13.13948 18.0625,21.34375 5.1405,8.20427 9.30896,17.4178 12.25,27.21875 2.6837,8.94653 4.35492,18.40464 5.03125,28.15625 0.67634,9.75161 0.34876,19.79758 -0.84375,29.875 -0.49462,4.14599 -1.12768,8.29199 -1.9375,12.4375 -3.83695,19.64156 -11.01178,38.11649 -20.34375,54.46875 -6.24309,10.93092 -13.4746,20.92112 -21.3125,29.84375 -7.83791,8.92264 -16.30643,16.76898 -25.0625,23.46875 -10.61325,8.12902 -21.6488,14.59075 -32.46875,19.65625 -10.81995,5.06549 -21.42145,8.74776 -31.34375,11.375 -10.76059,2.84649 -20.73278,4.47236 -29.53125,5.375 -8.79847,0.90265 -16.42495,1.08395 -22.65625,1.03125 -1.55783,-0.0131 -3.02478,-0.0575 -4.40625,-0.0937 -4.14442,-0.10888 -7.46652,-0.26779 -9.9375,-0.375 -0.17668,-0.008 -0.30096,-0.0243 -0.46875,-0.0312 -0.81,-0.2659 -1.95652,-0.57547 -3.46875,-0.96875 -3.19159,-0.83003 -7.90249,-1.97205 -13.875,-3.75 -5.97249,-1.77796 -13.22863,-4.21176 -21.375,-7.65625 -8.14636,-3.44448 -17.20448,-7.90276 -26.65625,-13.78125 -8.71473,-5.42292 -17.76755,-12.04526 -26.625,-20.0625 -8.85746,-8.01724 -17.520281,-17.42722 -25.281251,-28.3125 -6.4049,-8.97402 -12.18756,-18.9516 -17.0625,-29.78125 -4.87492,-10.82964 -8.832698,-22.5309 -11.59375,-34.8125 -4.123297,-18.37065 -5.563736,-38.12839 -3.46875,-58.03125 0.442162,-4.20066 1.037618,-8.36011 1.78125,-12.46875 1.816806,-9.98377 4.460943,-19.68854 7.96875,-28.8125 3.50779,-9.12396 7.87191,-17.67216 13.0625,-25.4375 5.6873,-8.50664 12.39728,-16.07136 19.71875,-22.40625 7.321461,-6.33488 15.274121,-11.42459 23.531251,-15.09375 5.90922,-2.64322 11.96861,-4.54869 18,-5.8125 6.03138,-1.26381 12.03268,-1.89105 17.84375,-1.96875 0.72638,-0.01 1.44995,-0.011 2.16992,-0.004 z m -14.26367,89.34765 c -3.12874,0.099 -6.29948,0.64634 -9.40625,1.65625 -4.93831,1.6077 -9.6302,4.42212 -13.46875,8.3125 -0.78912,0.80082 -1.54397,1.61593 -2.25,2.5 -2.67294,3.347 -4.61989,7.18166 -5.78125,11.1875 -1.53183,5.29848 -1.61565,10.82204 -0.40625,15.90625 1.29568,5.42669 4.04304,10.23614 7.625,13.9375 3.72927,3.84299 8.26204,6.42552 12.84375,7.75 5.22088,1.50509 10.39546,1.37441 14.8125,0.28125 2.75138,-0.68279 5.19718,-1.73431 7.3125,-2.96875 2.11533,-1.23444 3.88485,-2.65087 5.34375,-4.09375 1.63651,-1.62008 2.86444,-3.24401 3.78125,-4.75 0.91679,-1.50599 1.5401,-2.89457 1.9375,-4.03125 0.39741,-1.13669 0.5682,-2.02737 0.625,-2.65625 0.0568,-0.62889 -0.0115,-0.9994 -0.1875,-1.0625 -0.35195,-0.12619 -1.0267,0.92814 -2.34375,2.71875 -0.65853,0.89531 -1.50451,1.96931 -2.5625,3.125 -1.05799,1.15568 -2.3603,2.39039 -3.9375,3.5625 -1.40475,1.04517 -3.04237,2.04601 -4.90625,2.875 -1.86387,0.829 -3.93182,1.48995 -6.1875,1.84375 -0.45253,0.0713 -0.90815,0.1419 -1.375,0.1875 -0.46685,0.0456 -0.95886,0.0754 -1.4375,0.0937 -1.43592,0.0554 -2.90966,-0.002 -4.40625,-0.21875 -0.49886,-0.0721 -0.99945,-0.17594 -1.5,-0.28125 -1.0011,-0.21062 -2.00731,-0.49138 -3,-0.84375 -3.48651,-1.23387 -6.89888,-3.38843 -9.59375,-6.40625 -2.59709,-2.89768 -4.5649,-6.66029 -5.4375,-10.75 -0.82261,-3.83409 -0.6903,-8.03177 0.5,-12 0.89804,-3.00482 2.43598,-5.92171 4.46875,-8.46875 0.26846,-0.33639 0.52869,-0.64781 0.8125,-0.96875 0.28381,-0.32094 0.57678,-0.63293 0.875,-0.9375 1.08738,-1.11244 2.27267,-2.1406 3.53125,-3.03125 0.41953,-0.29688 0.84688,-0.57261 1.28125,-0.84375 1.73748,-1.08456 3.60854,-1.9431 5.5,-2.59375 2.71025,-0.93415 5.53059,-1.41755 8.3125,-1.46875 2.7819,-0.0512 5.52101,0.32908 8.0625,1.0625 2.85581,0.81905 5.50973,2.10506 7.84375,3.6875 2.33403,1.58241 4.32342,3.44274 5.96875,5.46875 2.02583,2.48736 3.54222,5.23483 4.5625,7.9375 1.02026,2.70267 1.56912,5.36495 1.78125,7.84375 0.23661,2.73225 0.0562,5.25744 -0.28125,7.4375 -0.33743,2.18006 -0.84412,4.02886 -1.3125,5.53125 -0.46837,1.50239 -0.90175,2.64956 -1.15625,3.46875 -0.2545,0.81917 -0.31071,1.31122 -0.125,1.4375 0.18571,0.12629 0.61125,-0.12433 1.25,-0.75 0.63875,-0.62563 1.48372,-1.63555 2.375,-3.09375 0.89128,-1.45819 1.83067,-3.35213 2.59375,-5.71875 0.76308,-2.36663 1.3517,-5.21534 1.4375,-8.4375 0.0753,-2.92315 -0.27221,-6.13561 -1.21875,-9.46875 -0.94659,-3.33312 -2.50244,-6.78883 -4.8125,-10.03125 -1.88248,-2.63592 -4.24746,-5.10188 -7.0625,-7.21875 -2.81505,-2.11689 -6.07201,-3.87599 -9.6875,-5.0625 -3.22047,-1.05229 -6.69454,-1.62945 -10.25,-1.65625 -0.44443,-0.003 -0.89679,-0.0141 -1.34375,0 z m 154.3125,15.71875 c -3.29557,0.0823 -6.43982,0.65414 -9.375,1.59375 -3.35448,1.07383 -6.41814,2.6294 -9.0625,4.5 -3.24756,2.30282 -5.85406,5.0383 -7.84375,7.875 -1.98964,2.83673 -3.36018,5.77705 -4.25,8.5625 -0.97816,3.0713 -1.34895,5.9203 -1.40625,8.40625 -0.0573,2.48595 0.20011,4.61111 0.5625,6.28125 0.36239,1.67015 0.82117,2.91791 1.21875,3.71875 0.39757,0.80087 0.7206,1.15195 0.9375,1.09375 0.2169,-0.0582 0.31485,-0.54893 0.34375,-1.40625 0.0289,-0.85732 0.011,-2.0834 0.0625,-3.65625 0.0258,-0.78644 0.0663,-1.64744 0.15625,-2.59375 0.0449,-0.47316 0.0868,-0.95961 0.15625,-1.46875 0.0694,-0.50914 0.1505,-1.05129 0.25,-1.59375 0.39798,-2.16982 1.06586,-4.59113 2.1875,-7.09375 1.01521,-2.27131 2.42923,-4.62669 4.28125,-6.84375 1.85203,-2.21707 4.14408,-4.31684 6.875,-6 2.2199,-1.37254 4.74425,-2.4603 7.46875,-3.1875 2.7245,-0.72722 5.65866,-1.07152 8.625,-0.90625 2.64135,0.14281 5.32704,0.69338 7.9375,1.65625 2.61046,0.96288 5.15373,2.32057 7.40625,4.09375 3.14492,2.47256 5.79917,5.74515 7.5625,9.5 0.36305,0.77134 0.71407,1.56311 1,2.375 1.0825,3.07372 1.5459,6.33571 1.40625,9.46875 -0.18035,4.13897 -1.43148,8.14942 -3.46875,11.5 -2.16853,3.57557 -5.25094,6.46086 -8.65625,8.34375 -3.53716,1.96421 -7.48915,2.88705 -11.1875,2.90625 -4.21342,0.0258 -8.17485,-1.11468 -11.40625,-2.84375 -2.01401,-1.07565 -3.76224,-2.38561 -5.25,-3.78125 -1.48777,-1.39564 -2.70439,-2.86362 -3.6875,-4.3125 -1.10423,-1.62545 -1.91197,-3.21701 -2.53125,-4.65625 -0.61928,-1.43926 -1.04739,-2.71922 -1.375,-3.78125 -0.65522,-2.12406 -0.96989,-3.34675 -1.34375,-3.34375 -0.18694,0.002 -0.37813,0.29365 -0.53125,0.90625 -0.1531,0.61259 -0.252,1.54584 -0.25,2.75 0.002,1.20414 0.098,2.68257 0.46875,4.40625 0.37079,1.72368 1.01827,3.68198 2.03125,5.75 0.9035,1.84227 2.09554,3.76379 3.6875,5.625 1.59196,1.86121 3.5635,3.66944 5.9375,5.21875 0.95305,0.62111 1.98799,1.19568 3.0625,1.71875 0.53726,0.26153 1.09121,0.51783 1.65625,0.75 2.82521,1.16087 5.98406,1.90948 9.375,2.09375 4.76247,0.2553 9.90217,-0.65903 14.6875,-3.0625 4.59964,-2.31814 8.77365,-5.95709 11.78125,-10.65625 2.81353,-4.40407 4.54866,-9.64867 4.84375,-15.15625 0.22004,-4.16498 -0.38839,-8.42909 -1.8125,-12.46875 -0.37617,-1.06704 -0.79924,-2.10928 -1.28125,-3.125 -2.34632,-4.93602 -5.86465,-9.13951 -10,-12.28125 -2.97385,-2.25723 -6.22707,-3.95031 -9.59375,-5.09375 -3.36668,-1.14345 -6.83133,-1.71635 -10.21875,-1.78125 -0.47557,-0.009 -0.9667,-0.0118 -1.4375,0 z M 1.1054688,798.89453 c -0.7369792,0.73698 -0.3684896,0.36849 0,0 z M 177.26172,473.33203 c -0.0607,0.013 -0.11365,0.0272 -0.15625,0.0625 -0.34079,0.28262 -0.068,1.27155 0.6875,2.875 0.75554,1.60346 2.00229,3.8122 3.5625,6.625 3.12041,5.6256 7.49476,13.62555 11.5625,23.6875 2.77511,5.68628 5.60498,12.06074 8.15625,18.9375 2.55127,6.87676 4.84894,14.2535 6.5625,21.96875 0.18855,-0.18985 0.37399,-0.37181 0.5625,-0.5625 5.41805,-5.48041 10.45561,-10.97119 15.03125,-16.34375 4.57564,-5.37256 8.68573,-10.63163 12.21875,-15.625 6.15644,-10.65922 10.45528,-20.03243 13.03125,-26.78125 2.5759,-6.74881 3.46914,-10.85925 2.625,-11.25 -0.84414,-0.39075 -3.29886,2.99315 -7.15625,8.96875 -3.85739,5.97561 -9.16089,14.54194 -15.875,24.46875 -5.38134,9.92245 -11.56916,21.25348 -18.96875,32.78125 -0.12873,0.20055 -0.27733,0.39395 -0.40625,0.59375 -0.15688,-7.80258 -0.99445,-15.20307 -2.40625,-22.03125 -1.4118,-6.82818 -3.39149,-13.07926 -5.6875,-18.59375 -2.57918,-5.15804 -5.28045,-9.68378 -7.90625,-13.53125 -2.6258,-3.84748 -5.16094,-7.01311 -7.375,-9.5 -2.21407,-2.4869 -4.11629,-4.28746 -5.53125,-5.40625 -1.2381,-0.97895 -2.10573,-1.43445 -2.53125,-1.34375 z"
       transform="translate(0,252.36218)"
       id="rect3377"
       inkscape:connector-curvature="0"
       sodipodi:nodetypes="sccscscscccscscscsccsscsccccscsssscccsscssscsccccssscscscccsccscsscscscscscsscscssccssscscscscscscssscssssscssssscsscccssssccsssscsscscscscscscscsccssscscscscscscssccccscccccscssscsscscscsscccccscsscscscscsssccsscccsccccscccssccsccsscscscsccscccccscsscccccsccsccccsccsccccccsscsccscssscscscsssc" />
  </g>
</svg>
